TITLE ""
FILE "P1Q_t_0259-0267.mp3" MP3
  TRACK 01 AUDIO
    TITLE "P1Q_t_0259-0267_01"
    INDEX 01 00:00:00
  TRACK 02 AUDIO
    TITLE "P1Q_t_0259-0267_02"
    INDEX 01 00:01:33
  TRACK 03 AUDIO
    TITLE "P1Q_t_0259-0267_03"
    INDEX 01 00:01:53
  TRACK 04 AUDIO
    TITLE "P1Q_t_0259-0267_04"
    INDEX 01 00:07:04
  TRACK 05 AUDIO
    TITLE "P1Q_t_0259-0267_05"
    INDEX 01 00:07:28
  TRACK 06 AUDIO
    TITLE "P1Q_t_0259-0267_06"
    INDEX 01 00:11:12
  TRACK 07 AUDIO
    TITLE "P1Q_t_0259-0267_07"
    INDEX 01 00:11:59
  TRACK 08 AUDIO
    TITLE "P1Q_t_0259-0267_08"
    INDEX 01 00:13:01
  TRACK 09 AUDIO
    TITLE "P1Q_t_0259-0267_09"
    INDEX 01 00:13:23
  TRACK 10 AUDIO
    TITLE "P1Q_t_0259-0267_10"
    INDEX 01 00:16:01
  TRACK 11 AUDIO
    TITLE "P1Q_t_0259-0267_11"
    INDEX 01 00:16:21
  TRACK 12 AUDIO
    TITLE "P1Q_t_0259-0267_12"
    INDEX 01 00:21:09
  TRACK 13 AUDIO
    TITLE "P1Q_t_0259-0267_13"
    INDEX 01 00:21:54
  TRACK 14 AUDIO
    TITLE "P1Q_t_0259-0267_14"
    INDEX 01 00:23:05
  TRACK 15 AUDIO
    TITLE "P1Q_t_0259-0267_15"
    INDEX 01 00:23:25
  TRACK 16 AUDIO
    TITLE "P1Q_t_0259-0267_16"
    INDEX 01 00:25:57
  TRACK 17 AUDIO
    TITLE "P1Q_t_0259-0267_17"
    INDEX 01 00:26:02
  TRACK 18 AUDIO
    TITLE "P1Q_t_0259-0267_18"
    INDEX 01 00:30:23
  TRACK 19 AUDIO
    TITLE "P1Q_t_0259-0267_19"
    INDEX 01 00:30:68
  TRACK 20 AUDIO
    TITLE "P1Q_t_0259-0267_20"
    INDEX 01 00:32:16
  TRACK 21 AUDIO
    TITLE "P1Q_t_0259-0267_21"
    INDEX 01 00:32:36
  TRACK 22 AUDIO
    TITLE "P1Q_t_0259-0267_22"
    INDEX 01 00:34:62
  TRACK 23 AUDIO
    TITLE "P1Q_t_0259-0267_23"
    INDEX 01 00:35:09
  TRACK 24 AUDIO
    TITLE "P1Q_t_0259-0267_24"
    INDEX 01 00:39:44
  TRACK 25 AUDIO
    TITLE "P1Q_t_0259-0267_25"
    INDEX 01 00:40:14
  TRACK 26 AUDIO
    TITLE "P1Q_t_0259-0267_26"
    INDEX 01 00:41:48
  TRACK 27 AUDIO
    TITLE "P1Q_t_0259-0267_27"
    INDEX 01 00:41:68
  TRACK 28 AUDIO
    TITLE "P1Q_t_0259-0267_28"
    INDEX 01 00:44:60
  TRACK 29 AUDIO
    TITLE "P1Q_t_0259-0267_29"
    INDEX 01 00:45:03
  TRACK 30 AUDIO
    TITLE "P1Q_t_0259-0267_30"
    INDEX 01 00:48:68
  TRACK 31 AUDIO
    TITLE "P1Q_t_0259-0267_31"
    INDEX 01 00:49:42
  TRACK 32 AUDIO
    TITLE "P1Q_t_0259-0267_32"
    INDEX 01 00:50:61
  TRACK 33 AUDIO
    TITLE "P1Q_t_0259-0267_33"
    INDEX 01 00:51:06
  TRACK 34 AUDIO
    TITLE "P1Q_t_0259-0267_34"
    INDEX 01 00:55:35
  TRACK 35 AUDIO
    TITLE "P1Q_t_0259-0267_35"
    INDEX 01 00:55:54
  TRACK 36 AUDIO
    TITLE "P1Q_t_0259-0267_36"
    INDEX 01 00:59:52
  TRACK 37 AUDIO
    TITLE "P1Q_t_0259-0267_37"
    INDEX 01 01:00:22
  TRACK 38 AUDIO
    TITLE "P1Q_t_0259-0267_38"
    INDEX 01 01:01:28
  TRACK 39 AUDIO
    TITLE "P1Q_t_0259-0267_39"
    INDEX 01 01:01:49
  TRACK 40 AUDIO
    TITLE "P1Q_t_0259-0267_40"
    INDEX 01 01:05:41
  TRACK 41 AUDIO
    TITLE "P1Q_t_0259-0267_41"
    INDEX 01 01:05:61
  TRACK 42 AUDIO
    TITLE "P1Q_t_0259-0267_42"
    INDEX 01 01:11:16
  TRACK 43 AUDIO
    TITLE "P1Q_t_0259-0267_43"
    INDEX 01 01:11:61
  TRACK 44 AUDIO
    TITLE "P1Q_t_0259-0267_44"
    INDEX 01 01:12:69
  TRACK 45 AUDIO
    TITLE "P1Q_t_0259-0267_45"
    INDEX 01 01:13:17
  TRACK 46 AUDIO
    TITLE "P1Q_t_0259-0267_46"
    INDEX 01 01:16:33
  TRACK 47 AUDIO
    TITLE "P1Q_t_0259-0267_47"
    INDEX 01 01:16:51
  TRACK 48 AUDIO
    TITLE "P1Q_t_0259-0267_48"
    INDEX 01 01:21:42
  TRACK 49 AUDIO
    TITLE "P1Q_t_0259-0267_49"
    INDEX 01 01:22:16
  TRACK 50 AUDIO
    TITLE "P1Q_t_0259-0267_50"
    INDEX 01 01:23:37
  TRACK 51 AUDIO
    TITLE "P1Q_t_0259-0267_51"
    INDEX 01 01:23:59
  TRACK 52 AUDIO
    TITLE "P1Q_t_0259-0267_52"
    INDEX 01 01:26:73
  TRACK 53 AUDIO
    TITLE "P1Q_t_0259-0267_53"
    INDEX 01 01:27:17
  TRACK 54 AUDIO
    TITLE "P1Q_t_0259-0267_54"
    INDEX 01 01:31:13
